<svg width="32" height="32" viewBox="0 0 32 32" fill="none" xmlns="http://www.w3.org/2000/svg">
<g id="ic:round-query-stats">
<path id="Vector" d="M26.5066 24.6267C27.1466 23.6 27.5066 22.4 27.4266 21.08C27.2533 18.2133 24.9733 15.7867 22.1333 15.48C21.2925 15.3822 20.4406 15.4634 19.6334 15.7182C18.8262 15.9731 18.0821 16.3959 17.4499 16.9588C16.8178 17.5217 16.3118 18.212 15.9654 18.9843C15.619 19.7567 15.44 20.5935 15.44 21.44C15.44 24.76 18.12 27.44 21.4266 27.44C22.6 27.44 23.6933 27.0933 24.6133 26.5067L27.8266 29.72C28.3466 30.24 29.2 30.24 29.72 29.72C30.24 29.2 30.24 28.3467 29.72 27.8267L26.5066 24.6267ZM21.44 24.7733C20.5559 24.7733 19.7081 24.4221 19.083 23.797C18.4578 23.1719 18.1066 22.3241 18.1066 21.44C18.1066 20.5559 18.4578 19.7081 19.083 19.083C19.7081 18.4579 20.5559 18.1067 21.44 18.1067C22.324 18.1067 23.1719 18.4579 23.797 19.083C24.4221 19.7081 24.7733 20.5559 24.7733 21.44C24.7733 22.3241 24.4221 23.1719 23.797 23.797C23.1719 24.4221 22.324 24.7733 21.44 24.7733ZM20.96 13.44C19.9733 13.4667 19.0266 13.68 18.16 14.04L17.4266 12.9333L13.32 19.6133C13.2103 19.7922 13.0598 19.9427 12.881 20.0525C12.7021 20.1624 12.4999 20.2284 12.2907 20.2453C12.0815 20.2622 11.8712 20.2294 11.6771 20.1497C11.4829 20.0701 11.3103 19.9457 11.1733 19.7867L8.34665 16.4933L4.26665 23.0267C3.85331 23.68 2.97331 23.8533 2.34665 23.4C1.78665 22.9867 1.62665 22.2133 1.99998 21.6133L7.03998 13.5467C7.51998 12.7867 8.59998 12.7067 9.18665 13.3867L12 16.6667L16.24 9.77333C16.3566 9.58283 16.5193 9.4248 16.7132 9.31388C16.907 9.20295 17.1257 9.14271 17.349 9.13872C17.5723 9.13473 17.793 9.18713 17.9907 9.29106C18.1884 9.395 18.3567 9.54711 18.48 9.73333L20.96 13.44ZM24.4133 14.1067C23.56 13.7333 22.64 13.5067 21.68 13.4533L27.7333 3.86666C28.1466 3.21333 29.0266 3.05333 29.64 3.50666C30.2133 3.92 30.36 4.70666 29.9866 5.29333L24.4133 14.1067Z" fill="#16E59A"/>
</g>
</svg>
